<?xml version="1.0" encoding="UTF-8" standalone="no"?>
<!-- Created with Inkscape (http://www.inkscape.org/) -->

<svg
   xmlns:dc="http://purl.org/dc/elements/1.1/"
   xmlns:cc="http://creativecommons.org/ns#"
   xmlns:rdf="http://www.w3.org/1999/02/22-rdf-syntax-ns#"
   xmlns:svg="http://www.w3.org/2000/svg"
   xmlns="http://www.w3.org/2000/svg"
   xmlns:xlink="http://www.w3.org/1999/xlink"
   xmlns:sodipodi="http://sodipodi.sourceforge.net/DTD/sodipodi-0.dtd"
   xmlns:inkscape="http://www.inkscape.org/namespaces/inkscape"
   width="256"
   height="256"
   viewBox="0 0 256 256"
   id="svg2"
   version="1.1"
   inkscape:version="0.91 r13725"
   sodipodi:docname="appinfo.svg">
  <defs
     id="defs4">
    <linearGradient
       inkscape:collect="always"
       id="linearGradient8793">
      <stop
         style="stop-color:#d4aa00;stop-opacity:1;"
         offset="0"
         id="stop8795" />
      <stop
         style="stop-color:#d4aa00;stop-opacity:0;"
         offset="1"
         id="stop8797" />
    </linearGradient>
    <linearGradient
       inkscape:collect="always"
       xlink:href="#linearGradient8793"
       id="linearGradient8799"
       x1="150.30299"
       y1="0.14499982"
       x2="149.302"
       y2="295.85501"
       gradientUnits="userSpaceOnUse" />
  </defs>
  <sodipodi:namedview
     id="base"
     pagecolor="#ffffff"
     bordercolor="#666666"
     borderopacity="1.0"
     inkscape:pageopacity="0.0"
     inkscape:pageshadow="2"
     inkscape:zoom="0.49497475"
     inkscape:cx="-496.05008"
     inkscape:cy="277.60086"
     inkscape:document-units="px"
     inkscape:current-layer="layer1"
     showgrid="false"
     units="px"
     showguides="true"
     inkscape:guide-bbox="true"
     inkscape:snap-intersection-paths="false"
     inkscape:snap-midpoints="true"
     inkscape:window-width="1920"
     inkscape:window-height="1017"
     inkscape:window-x="1920"
     inkscape:window-y="0"
     inkscape:window-maximized="1">
    <sodipodi:guide
       position="128.92857,237.85714"
       orientation="0,1"
       id="guide4147" />
    <sodipodi:guide
       position="18.214286,162.14286"
       orientation="1,0"
       id="guide4149" />
    <sodipodi:guide
       position="237.85714,66.785714"
       orientation="1,0"
       id="guide4151" />
    <sodipodi:guide
       position="198.21429,17.5"
       orientation="0,1"
       id="guide4153" />
  </sodipodi:namedview>
  <metadata
     id="metadata7">
    <rdf:RDF>
      <cc:Work
         rdf:about="">
        <dc:format>image/svg+xml</dc:format>
        <dc:type
           rdf:resource="http://purl.org/dc/dcmitype/StillImage" />
        <dc:title></dc:title>
      </cc:Work>
    </rdf:RDF>
  </metadata>
  <g
     inkscape:label="Capa 1"
     inkscape:groupmode="layer"
     id="layer1"
     transform="translate(0,-796.36216)">
    <g
       id="g34197"
       transform="matrix(0.74931131,0,0,0.74931131,16.304832,814.39637)"
       style="fill:url(#linearGradient8799);fill-opacity:1">
      <g
         id="Capa_1-84"
         style="fill:url(#linearGradient8799);fill-opacity:1">
        <g
           id="XMLID_2859_"
           style="fill:url(#linearGradient8799);fill-opacity:1">
          <linearGradient
             gradientTransform="matrix(0.9954,0,0,-0.9999,605.9966,-733.3582)"
             y2="-733.28473"
             x2="-458.80469"
             y1="-1029.3149"
             x1="-458.80469"
             gradientUnits="userSpaceOnUse"
             id="rect3438-6-0-6-7-2_60_-82"
             style="fill-opacity:1;fill:url(#linearGradient8799)">
            <stop
               id="stop34136"
               style="stop-color:#000000;fill-opacity:1;fill:url(#linearGradient8799)"
               offset="0" />
            <stop
               id="stop34138"
               style="stop-color:#000000;stop-opacity:0.5882;fill-opacity:1;fill:url(#linearGradient8799)"
               offset="1" />
          </linearGradient>
          <path
             style="opacity:0.45;fill:url(#linearGradient8799);fill-opacity:1"
             d="m 70.9,-0.146 156.804,0 c 37.43,0 67.772,30.582 67.772,68.308 l 0,159.385 c 0,37.726 -30.343,68.308 -67.772,68.308 l -156.804,0 c -37.431,0 -67.773,-30.582 -67.773,-68.308 l 0,-159.385 C 3.127,30.437 33.47,-0.146 70.9,-0.146 Z"
             enable-background="new    "
             id="rect3438-6-0-6-7-2_48_"
             inkscape:connector-curvature="0" />
          <linearGradient
             gradientTransform="matrix(0.9867,0,0,-0.9918,590.9551,-731.5776)"
             y2="-737.47803"
             x2="-447.6055"
             y1="-1034.1606"
             x1="-447.6055"
             gradientUnits="userSpaceOnUse"
             id="rect3438-6-0-1-1_60_-29"
             style="fill-opacity:1;fill:url(#linearGradient8799)">
            <stop
               id="stop34142"
               style="stop-color:#000000;fill-opacity:1;fill:url(#linearGradient8799)"
               offset="0" />
            <stop
               id="stop34144"
               style="stop-color:#000000;stop-opacity:0.5882;fill-opacity:1;fill:url(#linearGradient8799)"
               offset="1" />
          </linearGradient>
          <path
             style="opacity:0.45;fill:url(#linearGradient8799);fill-opacity:1"
             d="m 71.625,-0.146 155.354,0 c 37.127,0 67.225,30.401 67.225,67.904 l 0,158.442 c 0,37.502 -30.098,67.903 -67.225,67.903 l -155.354,0 C 34.498,294.103 4.401,263.702 4.401,226.2 l 0,-158.441 c 0,-37.503 30.097,-67.905 67.224,-67.905 z"
             enable-background="new    "
             id="rect3438-6-0-1-1_48_"
             inkscape:connector-curvature="0" />
          <g
             id="rect3438-6_50_"
             style="fill:url(#linearGradient8799);fill-opacity:1">
            <linearGradient
               y2="0.1445"
               x2="150.3017"
               y1="292.34671"
               x1="150.3018"
               gradientUnits="userSpaceOnUse"
               id="XMLID_140_-19"
               style="fill-opacity:1;fill:url(#linearGradient8799)">
              <stop
                 id="stop34149"
                 style="stop-color:#5970C5;fill-opacity:1;fill:url(#linearGradient8799)"
                 offset="0" />
              <stop
                 id="stop34151"
                 style="stop-color:#93D2FF;fill-opacity:1;fill:url(#linearGradient8799)"
                 offset="1" />
            </linearGradient>
            <path
               style="fill:url(#linearGradient8799);fill-opacity:1"
               d="m 71.633,0.145 157.34,0 c 37.24,0 67.43,30.189 67.43,67.431 l 0,157.339 c 0,37.241 -30.189,67.433 -67.43,67.433 l -157.34,0 c -37.242,0 -67.432,-30.191 -67.432,-67.433 l 0,-157.34 c 0,-37.241 30.19,-67.43 67.432,-67.43 z"
               id="XMLID_3436_"
               inkscape:connector-curvature="0" />
          </g>
        </g>
        <g
           id="XMLID_2785_"
           style="opacity:0.2;fill:url(#linearGradient8799);fill-opacity:1">
          <g
             id="path4617_2_"
             style="opacity:0.5;fill:url(#linearGradient8799);fill-opacity:1">
            <linearGradient
               y2="57.209"
               x2="149.6855"
               y1="229.291"
               x1="149.6855"
               gradientUnits="userSpaceOnUse"
               id="XMLID_144_-91"
               style="fill-opacity:1;fill:url(#linearGradient8799)">
              <stop
                 id="stop34157"
                 style="stop-color:#000000;fill-opacity:1;fill:url(#linearGradient8799)"
                 offset="0" />
              <stop
                 id="stop34159"
                 style="stop-color:#000000;stop-opacity:0.5882;fill-opacity:1;fill:url(#linearGradient8799)"
                 offset="1" />
            </linearGradient>
          </g>
          <linearGradient
             y2="56.2812"
             x2="149.7646"
             y1="233.02049"
             x1="149.7646"
             gradientUnits="userSpaceOnUse"
             id="XMLID_157_-50"
             style="fill-opacity:1;fill:url(#linearGradient8799)">
            <stop
               id="stop34163"
               style="stop-color:#000000;fill-opacity:1;fill:url(#linearGradient8799)"
               offset="0" />
            <stop
               id="stop34165"
               style="stop-color:#000000;stop-opacity:0.5882;fill-opacity:1;fill:url(#linearGradient8799)"
               offset="1" />
          </linearGradient>
        </g>
        <g
           id="XMLID_3078_"
           style="opacity:0.2;fill:url(#linearGradient8799);fill-opacity:1">
          <g
             id="path4617_4_"
             style="opacity:0.5;fill:url(#linearGradient8799);fill-opacity:1">
            <linearGradient
               y2="59.3652"
               x2="149.6855"
               y1="231.4473"
               x1="149.6855"
               gradientUnits="userSpaceOnUse"
               id="XMLID_231_-04"
               style="fill-opacity:1;fill:url(#linearGradient8799)">
              <stop
                 id="stop34171"
                 style="stop-color:#000000;fill-opacity:1;fill:url(#linearGradient8799)"
                 offset="0" />
              <stop
                 id="stop34173"
                 style="stop-color:#000000;stop-opacity:0.5882;fill-opacity:1;fill:url(#linearGradient8799)"
                 offset="1" />
            </linearGradient>
          </g>
          <linearGradient
             y2="58.4375"
             x2="149.7646"
             y1="235.1768"
             x1="149.7646"
             gradientUnits="userSpaceOnUse"
             id="XMLID_248_-22"
             style="fill-opacity:1;fill:url(#linearGradient8799)">
            <stop
               id="stop34177"
               style="stop-color:#000000;fill-opacity:1;fill:url(#linearGradient8799)"
               offset="0" />
            <stop
               id="stop34179"
               style="stop-color:#000000;stop-opacity:0.5882;fill-opacity:1;fill:url(#linearGradient8799)"
               offset="1" />
          </linearGradient>
        </g>
        <g
           id="XMLID_2792_"
           style="fill:url(#linearGradient8799);fill-opacity:1">
          <g
             id="path4617_3_"
             style="opacity:0.5;fill:url(#linearGradient8799);fill-opacity:1" />
        </g>
      </g>
      <g
         display="none"
         id="Capa_2-959"
         style="display:none;fill:url(#linearGradient8799);fill-opacity:1" />
      <g
         display="none"
         id="Capa_3-95"
         style="display:none;fill:url(#linearGradient8799);fill-opacity:1">
        <g
           display="inline"
           id="XMLID_2894_-5"
           style="display:inline;fill:url(#linearGradient8799);fill-opacity:1">
          <g
             id="XMLID_3037_-5"
             style="fill:url(#linearGradient8799);fill-opacity:1">
            <path
               d="M 169.77,-50.098 C 125.792,-50.863 87.286,-22.245 56.536,6.362 24.703,35.978 -2.004,72.909 -10.71,116.221 c -4.257,21.176 -4.248,43.372 1.534,64.265 5.334,19.271 15.687,36.748 29.147,51.452 29.706,32.448 71.709,49.38 114.062,57.854 22.208,4.444 44.899,7.157 67.497,8.584 20.699,1.308 41.663,1.124 62.115,-2.645 20.093,-3.703 39.586,-11.192 55.79,-23.829 14.109,-11.003 25.063,-25.702 32.312,-42.014 14.968,-33.678 15.13,-73.015 2.224,-107.348 C 339.847,84.965 312.51,53.919 280.85,29.901 245.911,3.395 202.721,-18.989 157.844,-18.456 115.541,-17.953 78.187,4.95 47.849,32.734 c -8.007,7.333 -15.616,15.08 -22.978,23.058 -1.308,1.417 0.809,3.544 2.121,2.121 27.377,-29.67 59.854,-57.991 99.605,-68.912 44.049,-12.102 88.795,2.948 126.618,25.798 64.448,38.935 120.995,108.163 104.151,187.952 -7.864,37.251 -31.649,68.325 -67.426,82.473 -37.641,14.885 -80.126,11.922 -119.469,7.234 C 126.745,287.248 82.029,277.03 45.762,250.805 12.145,226.496 -10.047,190.218 -10.726,148.143 -11.431,104.406 8.472,63.72 36.604,31.23 50.387,15.314 66.042,0.935 82.686,-11.94 c 17.015,-13.161 35.793,-24.875 56.572,-30.978 9.938,-2.919 20.154,-4.36 30.512,-4.181 1.93,0.035 1.931,-2.965 0,-2.999 l 0,0 z"
               id="XMLID_3004_-4"
               inkscape:connector-curvature="0"
               style="fill:url(#linearGradient8799);fill-opacity:1" />
          </g>
        </g>
      </g>
    </g>
    <rect
       style="opacity:0.81000001;fill:#a05a2c;fill-opacity:1;stroke:#b06a00;stroke-width:3.72681832;stroke-linecap:round;stroke-linejoin:bevel;stroke-miterlimit:4;stroke-dasharray:none;stroke-opacity:1"
       id="rect5086"
       width="8.4949446"
       height="90.429504"
       x="-557.85205"
       y="698.47211"
       transform="matrix(0.64223759,-0.76650563,0.70027809,0.71387015,0,0)"
       inkscape:export-xdpi="90"
       inkscape:export-ydpi="90" />
    <rect
       style="opacity:0.81000001;fill:#d45500;fill-opacity:1;stroke:#b06a00;stroke-width:1.8138864;stroke-linecap:round;stroke-linejoin:bevel;stroke-miterlimit:4;stroke-dasharray:none;stroke-opacity:1"
       id="rect5088"
       width="15.440994"
       height="2.9079623"
       x="-607.85168"
       y="760.04352"
       transform="matrix(0.68997374,-0.7238344,0.74475249,0.66734079,0,0)"
       inkscape:export-xdpi="90"
       inkscape:export-ydpi="90" />
    <rect
       style="opacity:0.81000001;fill:#d45500;fill-opacity:1;stroke:#b06a00;stroke-width:1.81241214;stroke-linecap:round;stroke-linejoin:bevel;stroke-miterlimit:4;stroke-dasharray:none;stroke-opacity:1"
       id="rect5088-1"
       width="12.696874"
       height="2.3811488"
       x="-559.95532"
       y="742.49768"
       transform="matrix(0.64224048,-0.7665032,0.70028083,0.71386747,0,0)"
       inkscape:export-xdpi="90"
       inkscape:export-ydpi="90" />
    <rect
       style="opacity:0.81000001;fill:#d45500;fill-opacity:1;stroke:#b06a00;stroke-width:1.83803594;stroke-linecap:round;stroke-linejoin:bevel;stroke-miterlimit:4;stroke-dasharray:none;stroke-opacity:1"
       id="rect5088-9"
       width="14.811753"
       height="2.7324166"
       x="-629.17627"
       y="823.84772"
       transform="matrix(0.70578767,-0.70842343,0.75918647,0.65087318,0,0)"
       inkscape:export-xdpi="90"
       inkscape:export-ydpi="90" />
    <path
       style="opacity:0.38900003;fill:none;fill-rule:evenodd;stroke:#002728;stroke-width:9.17091942;stroke-linecap:butt;stroke-linejoin:miter;stroke-miterlimit:4;stroke-dasharray:none;stroke-opacity:1"
       d="m 116.45268,845.9016 1.22435,86.10006"
       id="path5202"
       inkscape:connector-curvature="0" />
    <path
       style="opacity:0.59899998;fill:#cccccc;fill-rule:evenodd;stroke:#002728;stroke-width:9.17091942;stroke-linecap:butt;stroke-linejoin:miter;stroke-miterlimit:4;stroke-dasharray:none;stroke-opacity:0.62804877"
       d="M 142.99868,871.21533 69.225171,870.0426"
       id="path5202-0"
       inkscape:connector-curvature="0" />
    <path
       style="opacity:1;fill:none;fill-opacity:1;stroke:#b06a00;stroke-width:7.45363665;stroke-linecap:round;stroke-linejoin:bevel;stroke-miterlimit:4;stroke-dasharray:none;stroke-opacity:1"
       id="path5113"
       sodipodi:type="arc"
       sodipodi:cx="-553.08099"
       sodipodi:cy="655.1936"
       sodipodi:rx="44.893379"
       sodipodi:ry="44.538231"
       sodipodi:start="5.5341424"
       sodipodi:end="5.5312975"
       sodipodi:open="true"
       d="m -520.20373,624.86582 a 44.893379,44.538231 0 0 1 -2.28427,62.92337 44.893379,44.538231 0 0 1 -63.42674,-2.22144 44.893379,44.538231 0 0 1 2.19405,-62.92653 44.893379,44.538231 0 0 1 63.42985,2.13193"
       transform="matrix(0.64223759,-0.76650563,0.70027809,0.71387015,0,0)"
       inkscape:export-xdpi="90"
       inkscape:export-ydpi="90" />
    <path
       style="opacity:1;fill:#16ffff;fill-opacity:0.47256099;stroke:#b06a00;stroke-width:3.7268188;stroke-linecap:round;stroke-linejoin:bevel;stroke-miterlimit:4;stroke-dasharray:none;stroke-opacity:1"
       id="path5113-1"
       sodipodi:type="arc"
       sodipodi:cx="-553.08093"
       sodipodi:cy="655.19354"
       sodipodi:rx="39.973289"
       sodipodi:ry="39.657021"
       sodipodi:start="5.5341424"
       sodipodi:end="5.5312975"
       sodipodi:open="true"
       d="m -523.80686,628.18956 a 39.973289,39.657021 0 0 1 -2.03392,56.02723 39.973289,39.657021 0 0 1 -56.47548,-1.97799 39.973289,39.657021 0 0 1 1.95359,-56.03003 39.973289,39.657021 0 0 1 56.47826,1.89828"
       transform="matrix(0.64223761,-0.76650561,0.70027811,0.71387014,0,0)"
       inkscape:export-xdpi="90"
       inkscape:export-ydpi="90" />
  </g>
</svg>
